<?xml version="1.0" encoding="UTF-8"?>
<!DOCTYPE svg PUBLIC "-//W3C//DTD SVG 1.1//EN" "http://www.w3.org/Graphics/SVG/1.1/DTD/svg11.dtd">
<svg xmlns="http://www.w3.org/2000/svg" height="100%" width="665%">
   <g transform="translate(30, 330)">
      <line x1="20"
            x2="2600"
            y1="-150"
            y2="-150"
            stroke="lightgray"
            stroke-dasharray="8 4"
            stroke-width="1"/>
      <rect x="30"
            y="-0"
            stroke="black"
            stroke-width=".5"
            fill="blue"
            width="20"
            height="0"/>
      <text x="40" y="20" text-anchor="middle">1</text>
      <rect x="60"
            y="-0"
            stroke="black"
            stroke-width=".5"
            fill="blue"
            width="20"
            height="0"/>
      <text x="70" y="20" text-anchor="middle">2</text>
      <rect x="90"
            y="-0"
            stroke="black"
            stroke-width=".5"
            fill="blue"
            width="20"
            height="0"/>
      <text x="100" y="20" text-anchor="middle">3</text>
      <rect x="120"
            y="-0"
            stroke="black"
            stroke-width=".5"
            fill="blue"
            width="20"
            height="0"/>
      <text x="130" y="20" text-anchor="middle">4</text>
      <rect x="150"
            y="-0"
            stroke="black"
            stroke-width=".5"
            fill="blue"
            width="20"
            height="0"/>
      <text x="160" y="20" text-anchor="middle">5</text>
      <rect x="180"
            y="-0"
            stroke="black"
            stroke-width=".5"
            fill="blue"
            width="20"
            height="0"/>
      <text x="190" y="20" text-anchor="middle">6</text>
      <rect x="210"
            y="-0"
            stroke="black"
            stroke-width=".5"
            fill="blue"
            width="20"
            height="0"/>
      <text x="220" y="20" text-anchor="middle">7</text>
      <rect x="240"
            y="-0"
            stroke="black"
            stroke-width=".5"
            fill="blue"
            width="20"
            height="0"/>
      <text x="250" y="20" text-anchor="middle">8</text>
      <rect x="270"
            y="-0"
            stroke="black"
            stroke-width=".5"
            fill="blue"
            width="20"
            height="0"/>
      <text x="280" y="20" text-anchor="middle">9</text>
      <rect x="300"
            y="-0"
            stroke="black"
            stroke-width=".5"
            fill="blue"
            width="20"
            height="0"/>
      <text x="310" y="20" text-anchor="middle">10</text>
      <rect x="330"
            y="-0"
            stroke="black"
            stroke-width=".5"
            fill="blue"
            width="20"
            height="0"/>
      <text x="340" y="20" text-anchor="middle">11</text>
      <rect x="360"
            y="-0"
            stroke="black"
            stroke-width=".5"
            fill="blue"
            width="20"
            height="0"/>
      <text x="370" y="20" text-anchor="middle">12</text>
      <rect x="390"
            y="-0"
            stroke="black"
            stroke-width=".5"
            fill="blue"
            width="20"
            height="0"/>
      <text x="400" y="20" text-anchor="middle">13</text>
      <rect x="420"
            y="-45"
            stroke="black"
            stroke-width=".5"
            fill="blue"
            width="20"
            height="45"/>
      <text x="430" y="20" text-anchor="middle">14</text>
      <rect x="450"
            y="-0"
            stroke="black"
            stroke-width=".5"
            fill="blue"
            width="20"
            height="0"/>
      <text x="460" y="20" text-anchor="middle">15</text>
      <rect x="480"
            y="-105"
            stroke="black"
            stroke-width=".5"
            fill="blue"
            width="20"
            height="105"/>
      <text x="490" y="20" text-anchor="middle">16</text>
      <rect x="510"
            y="-60"
            stroke="black"
            stroke-width=".5"
            fill="blue"
            width="20"
            height="60"/>
      <text x="520" y="20" text-anchor="middle">17</text>
      <rect x="540"
            y="-0"
            stroke="black"
            stroke-width=".5"
            fill="blue"
            width="20"
            height="0"/>
      <text x="550" y="20" text-anchor="middle">18</text>
      <rect x="570"
            y="-0"
            stroke="black"
            stroke-width=".5"
            fill="blue"
            width="20"
            height="0"/>
      <text x="580" y="20" text-anchor="middle">19</text>
      <rect x="600"
            y="-0"
            stroke="black"
            stroke-width=".5"
            fill="blue"
            width="20"
            height="0"/>
      <text x="610" y="20" text-anchor="middle">20</text>
      <rect x="630"
            y="-0"
            stroke="black"
            stroke-width=".5"
            fill="blue"
            width="20"
            height="0"/>
      <text x="640" y="20" text-anchor="middle">21</text>
      <rect x="660"
            y="-0"
            stroke="black"
            stroke-width=".5"
            fill="blue"
            width="20"
            height="0"/>
      <text x="670" y="20" text-anchor="middle">22</text>
      <rect x="690"
            y="-0"
            stroke="black"
            stroke-width=".5"
            fill="blue"
            width="20"
            height="0"/>
      <text x="700" y="20" text-anchor="middle">23</text>
      <rect x="720"
            y="-0"
            stroke="black"
            stroke-width=".5"
            fill="blue"
            width="20"
            height="0"/>
      <text x="730" y="20" text-anchor="middle">24</text>
      <rect x="750"
            y="-0"
            stroke="black"
            stroke-width=".5"
            fill="blue"
            width="20"
            height="0"/>
      <text x="760" y="20" text-anchor="middle">25</text>
      <rect x="780"
            y="-0"
            stroke="black"
            stroke-width=".5"
            fill="blue"
            width="20"
            height="0"/>
      <text x="790" y="20" text-anchor="middle">26</text>
      <rect x="810"
            y="-0"
            stroke="black"
            stroke-width=".5"
            fill="blue"
            width="20"
            height="0"/>
      <text x="820" y="20" text-anchor="middle">27</text>
      <rect x="840"
            y="-30"
            stroke="black"
            stroke-width=".5"
            fill="blue"
            width="20"
            height="30"/>
      <text x="850" y="20" text-anchor="middle">28</text>
      <rect x="870"
            y="-0"
            stroke="black"
            stroke-width=".5"
            fill="blue"
            width="20"
            height="0"/>
      <text x="880" y="20" text-anchor="middle">29</text>
      <rect x="900"
            y="-0"
            stroke="black"
            stroke-width=".5"
            fill="blue"
            width="20"
            height="0"/>
      <text x="910" y="20" text-anchor="middle">30</text>
      <rect x="930"
            y="-0"
            stroke="black"
            stroke-width=".5"
            fill="blue"
            width="20"
            height="0"/>
      <text x="940" y="20" text-anchor="middle">31</text>
      <rect x="960"
            y="-0"
            stroke="black"
            stroke-width=".5"
            fill="blue"
            width="20"
            height="0"/>
      <text x="970" y="20" text-anchor="middle">32</text>
      <rect x="990"
            y="-60"
            stroke="black"
            stroke-width=".5"
            fill="blue"
            width="20"
            height="60"/>
      <text x="1000" y="20" text-anchor="middle">33</text>
      <rect x="1020"
            y="-0"
            stroke="black"
            stroke-width=".5"
            fill="blue"
            width="20"
            height="0"/>
      <text x="1030" y="20" text-anchor="middle">34</text>
      <rect x="1050"
            y="-0"
            stroke="black"
            stroke-width=".5"
            fill="blue"
            width="20"
            height="0"/>
      <text x="1060" y="20" text-anchor="middle">35</text>
      <rect x="1080"
            y="-210"
            stroke="black"
            stroke-width=".5"
            fill="blue"
            width="20"
            height="210"/>
      <text x="1090" y="20" text-anchor="middle">36</text>
      <rect x="1110"
            y="-0"
            stroke="black"
            stroke-width=".5"
            fill="blue"
            width="20"
            height="0"/>
      <text x="1120" y="20" text-anchor="middle">37</text>
      <rect x="1140"
            y="-0"
            stroke="black"
            stroke-width=".5"
            fill="blue"
            width="20"
            height="0"/>
      <text x="1150" y="20" text-anchor="middle">38</text>
      <rect x="1170"
            y="-15"
            stroke="black"
            stroke-width=".5"
            fill="blue"
            width="20"
            height="15"/>
      <text x="1180" y="20" text-anchor="middle">39</text>
      <rect x="1200"
            y="-0"
            stroke="black"
            stroke-width=".5"
            fill="blue"
            width="20"
            height="0"/>
      <text x="1210" y="20" text-anchor="middle">40</text>
      <rect x="1230"
            y="-0"
            stroke="black"
            stroke-width=".5"
            fill="blue"
            width="20"
            height="0"/>
      <text x="1240" y="20" text-anchor="middle">41</text>
      <rect x="1260"
            y="-0"
            stroke="black"
            stroke-width=".5"
            fill="blue"
            width="20"
            height="0"/>
      <text x="1270" y="20" text-anchor="middle">42</text>
      <rect x="1290"
            y="-0"
            stroke="black"
            stroke-width=".5"
            fill="blue"
            width="20"
            height="0"/>
      <text x="1300" y="20" text-anchor="middle">43</text>
      <rect x="1320"
            y="-75"
            stroke="black"
            stroke-width=".5"
            fill="blue"
            width="20"
            height="75"/>
      <text x="1330" y="20" text-anchor="middle">44</text>
      <rect x="1350"
            y="-0"
            stroke="black"
            stroke-width=".5"
            fill="blue"
            width="20"
            height="0"/>
      <text x="1360" y="20" text-anchor="middle">45</text>
      <rect x="1380"
            y="-0"
            stroke="black"
            stroke-width=".5"
            fill="blue"
            width="20"
            height="0"/>
      <text x="1390" y="20" text-anchor="middle">46</text>
      <rect x="1410"
            y="-30"
            stroke="black"
            stroke-width=".5"
            fill="blue"
            width="20"
            height="30"/>
      <text x="1420" y="20" text-anchor="middle">47</text>
      <rect x="1440"
            y="-0"
            stroke="black"
            stroke-width=".5"
            fill="blue"
            width="20"
            height="0"/>
      <text x="1450" y="20" text-anchor="middle">48</text>
      <rect x="1470"
            y="-0"
            stroke="black"
            stroke-width=".5"
            fill="blue"
            width="20"
            height="0"/>
      <text x="1480" y="20" text-anchor="middle">49</text>
      <rect x="1500"
            y="-0"
            stroke="black"
            stroke-width=".5"
            fill="blue"
            width="20"
            height="0"/>
      <text x="1510" y="20" text-anchor="middle">50</text>
      <rect x="1530"
            y="-15"
            stroke="black"
            stroke-width=".5"
            fill="blue"
            width="20"
            height="15"/>
      <text x="1540" y="20" text-anchor="middle">51</text>
      <rect x="1560"
            y="-0"
            stroke="black"
            stroke-width=".5"
            fill="blue"
            width="20"
            height="0"/>
      <text x="1570" y="20" text-anchor="middle">52</text>
      <rect x="1590"
            y="-0"
            stroke="black"
            stroke-width=".5"
            fill="blue"
            width="20"
            height="0"/>
      <text x="1600" y="20" text-anchor="middle">53</text>
      <rect x="1620"
            y="-0"
            stroke="black"
            stroke-width=".5"
            fill="blue"
            width="20"
            height="0"/>
      <text x="1630" y="20" text-anchor="middle">54</text>
      <rect x="1650"
            y="-0"
            stroke="black"
            stroke-width=".5"
            fill="blue"
            width="20"
            height="0"/>
      <text x="1660" y="20" text-anchor="middle">55</text>
      <rect x="1680"
            y="-0"
            stroke="black"
            stroke-width=".5"
            fill="blue"
            width="20"
            height="0"/>
      <text x="1690" y="20" text-anchor="middle">56</text>
      <rect x="1710"
            y="-0"
            stroke="black"
            stroke-width=".5"
            fill="blue"
            width="20"
            height="0"/>
      <text x="1720" y="20" text-anchor="middle">57</text>
      <rect x="1740"
            y="-0"
            stroke="black"
            stroke-width=".5"
            fill="blue"
            width="20"
            height="0"/>
      <text x="1750" y="20" text-anchor="middle">58</text>
      <rect x="1770"
            y="-0"
            stroke="black"
            stroke-width=".5"
            fill="blue"
            width="20"
            height="0"/>
      <text x="1780" y="20" text-anchor="middle">59</text>
      <rect x="1800"
            y="-0"
            stroke="black"
            stroke-width=".5"
            fill="blue"
            width="20"
            height="0"/>
      <text x="1810" y="20" text-anchor="middle">60</text>
      <rect x="1830"
            y="-0"
            stroke="black"
            stroke-width=".5"
            fill="blue"
            width="20"
            height="0"/>
      <text x="1840" y="20" text-anchor="middle">61</text>
      <rect x="1860"
            y="-0"
            stroke="black"
            stroke-width=".5"
            fill="blue"
            width="20"
            height="0"/>
      <text x="1870" y="20" text-anchor="middle">62</text>
      <rect x="1890"
            y="-0"
            stroke="black"
            stroke-width=".5"
            fill="blue"
            width="20"
            height="0"/>
      <text x="1900" y="20" text-anchor="middle">63</text>
      <rect x="1920"
            y="-0"
            stroke="black"
            stroke-width=".5"
            fill="blue"
            width="20"
            height="0"/>
      <text x="1930" y="20" text-anchor="middle">64</text>
      <rect x="1950"
            y="-0"
            stroke="black"
            stroke-width=".5"
            fill="blue"
            width="20"
            height="0"/>
      <text x="1960" y="20" text-anchor="middle">65</text>
      <rect x="1980"
            y="-15"
            stroke="black"
            stroke-width=".5"
            fill="blue"
            width="20"
            height="15"/>
      <text x="1990" y="20" text-anchor="middle">66</text>
      <rect x="2010"
            y="-0"
            stroke="black"
            stroke-width=".5"
            fill="blue"
            width="20"
            height="0"/>
      <text x="2020" y="20" text-anchor="middle">67</text>
      <rect x="2040"
            y="-0"
            stroke="black"
            stroke-width=".5"
            fill="blue"
            width="20"
            height="0"/>
      <text x="2050" y="20" text-anchor="middle">68</text>
      <rect x="2070"
            y="-15"
            stroke="black"
            stroke-width=".5"
            fill="blue"
            width="20"
            height="15"/>
      <text x="2080" y="20" text-anchor="middle">69</text>
      <rect x="2100"
            y="-0"
            stroke="black"
            stroke-width=".5"
            fill="blue"
            width="20"
            height="0"/>
      <text x="2110" y="20" text-anchor="middle">70</text>
      <rect x="2130"
            y="-0"
            stroke="black"
            stroke-width=".5"
            fill="blue"
            width="20"
            height="0"/>
      <text x="2140" y="20" text-anchor="middle">71</text>
      <rect x="2160"
            y="-0"
            stroke="black"
            stroke-width=".5"
            fill="blue"
            width="20"
            height="0"/>
      <text x="2170" y="20" text-anchor="middle">72</text>
      <rect x="2190"
            y="-0"
            stroke="black"
            stroke-width=".5"
            fill="blue"
            width="20"
            height="0"/>
      <text x="2200" y="20" text-anchor="middle">73</text>
      <rect x="2220"
            y="-0"
            stroke="black"
            stroke-width=".5"
            fill="blue"
            width="20"
            height="0"/>
      <text x="2230" y="20" text-anchor="middle">74</text>
      <rect x="2250"
            y="-0"
            stroke="black"
            stroke-width=".5"
            fill="blue"
            width="20"
            height="0"/>
      <text x="2260" y="20" text-anchor="middle">75</text>
      <rect x="2280"
            y="-0"
            stroke="black"
            stroke-width=".5"
            fill="blue"
            width="20"
            height="0"/>
      <text x="2290" y="20" text-anchor="middle">76</text>
      <rect x="2310"
            y="-0"
            stroke="black"
            stroke-width=".5"
            fill="blue"
            width="20"
            height="0"/>
      <text x="2320" y="20" text-anchor="middle">77</text>
      <rect x="2340"
            y="-0"
            stroke="black"
            stroke-width=".5"
            fill="blue"
            width="20"
            height="0"/>
      <text x="2350" y="20" text-anchor="middle">78</text>
      <rect x="2370"
            y="-0"
            stroke="black"
            stroke-width=".5"
            fill="blue"
            width="20"
            height="0"/>
      <text x="2380" y="20" text-anchor="middle">79</text>
      <rect x="2400"
            y="-0"
            stroke="black"
            stroke-width=".5"
            fill="blue"
            width="20"
            height="0"/>
      <text x="2410" y="20" text-anchor="middle">80</text>
      <rect x="2430"
            y="-0"
            stroke="black"
            stroke-width=".5"
            fill="blue"
            width="20"
            height="0"/>
      <text x="2440" y="20" text-anchor="middle">81</text>
      <rect x="2460"
            y="-0"
            stroke="black"
            stroke-width=".5"
            fill="blue"
            width="20"
            height="0"/>
      <text x="2470" y="20" text-anchor="middle">82</text>
      <rect x="2490"
            y="-45"
            stroke="black"
            stroke-width=".5"
            fill="blue"
            width="20"
            height="45"/>
      <text x="2500" y="20" text-anchor="middle">83</text>
      <rect x="2520"
            y="-0"
            stroke="black"
            stroke-width=".5"
            fill="blue"
            width="20"
            height="0"/>
      <text x="2530" y="20" text-anchor="middle">84</text>
      <rect x="2550"
            y="-0"
            stroke="black"
            stroke-width=".5"
            fill="blue"
            width="20"
            height="0"/>
      <text x="2560" y="20" text-anchor="middle">85</text>
      <rect x="2580"
            y="-0"
            stroke="black"
            stroke-width=".5"
            fill="blue"
            width="20"
            height="0"/>
      <text x="2590" y="20" text-anchor="middle">86</text>
      <line x1="20"
            x2="20"
            y1="0"
            y2="-320"
            stroke="black"
            stroke-width="1"
            stroke-linecap="square"/>
      <line x1="20"
            x2="2600"
            y1="0"
            y2="0"
            stroke="black"
            stroke-width="1"
            stroke-linecap="square"/>
      <text x="10" y="0" text-anchor="end" dominant-baseline="middle">0%</text>
      <text x="10" y="-150" text-anchor="end" dominant-baseline="middle">50%</text>
      <text x="10" y="-300" text-anchor="end" dominant-baseline="middle">100%</text>
   </g>
</svg>